# xmcd
#
# Track frame offsets:
#       183
#       52910
#       89848
#       122948
#       147353
#       158280
#       225415
#       257388
#
# Disc length: 4209 seconds
#
# Revision: 0
# Processed by: cddbd v1.5PL3 Copyright (c) Steve Scherf et al.
# Submitted via: WaveLab 4.01
#
DISCID=5e106f08
DTITLE=diverse - Highlights of 1988 European Brass Band Chamionship
DYEAR=1900
DGENRE=
TTITLE0=Connotations Edward Gregson John Black Dyke Mills Band John Foster - Higlights of 1988 European Brass Band Championship
TTITLE1=Prelude and Cappricio Edward Gregson Desford Colliery Dowty Band EdwGregson - Higlights of 1988 European Brass Band Championship
TTITLE2=Pavane Gabriel Faure arr Gordon Langford Desford Colliery Dowty Band EdwGregson - Higlights of 1988 European Brass Band Championship
TTITLE3=Chevallier D´Honneur William Relton Desford Colliery Dowty Band WRelton - Higlights of 1988 European Brass Band Championship
TTITLE4=Waltz for Valentina William Relton Massed Band William Relton - Higlights of 1988 European Brass Band Championship
TTITLE5=An Epic Symphony Percy Fletcher Desford Colliery Dowty Band James Watson - Higlights of 1988 European Brass Band Championship
TTITLE6=Light Cavalry Overture F von Suppé arr Gordon Langford Massed Band William Relton - Higlights of 1988 European Brass Band Championship
TTITLE7=Variations on an Enigma Philip Sparke Eikanger Bjorsvik Musikklag Howard Snell - Higlights of 1988 European Brass Band Championship
EXTD=
EXTT0=
EXTT1=
EXTT2=
EXTT3=
EXTT4=
EXTT5=
EXTT6=
EXTT7=
PLAYORDER=
